{"title":"Paranormal Activity 2 2010 TS Xvid Feel-Free","uid":5921032,"size":969075842,"categoryP":"video","categoryS":"movies","magnet":"?xt=urn:btih:2573a1cb781f4d64be36a4a7a8342c31c2e803fb&amp;dn=Paranormal+Activity+2+2010+TS+Xvid+Feel-Free&amp;tr=udp%3A%2F%2Ftracker.openbittorrent.com%3A80&amp;tr=udp%3A%2F%2Fopen.demonii.com%3A1337&amp;tr=udp%3A%2F%2Ftracker.coppersurfer.tk%3A6969&amp;tr=udp%3A%2F%2Fexodus.desync.com%3A6969","seeders":1,"leechers":0,"uploader":"deffjam555","files":9,"time":1288422192,"description":"cover &lt;a href=&quot;\nhttp://static.cinemarx.ro/poze/filme-mari/2010/09/Paranormal_Activity_2_1284811474_2010.jpg&quot; rel=&quot;nofollow&quot; target=&quot;_NEW&quot;&gt;\nhttp://static.cinemarx.ro/poze/filme-mari/2010/09/Paranormal_Activity_2_1284811474_2010.jpg&lt;/a&gt;\n\nGenre:Horror\nLanguage:English\nIMDb:http://www.imdb.com/title/tt1536044/\nSource:Ts.ELEKTRI4KA/Audio:OWN/IMAGINE.Thx\n\nGeneral\nComplete name :Paranormal Activity 2 2010 TS Xvid Feel-Free\nFormat : AVI\nFormat/Info : Audio Video Interleave\nFile size : 924 MiB\nDuration : 1h 24mn\nOverall bit rate : 1 528 Kbps\nVideo #0\nCodec ID : XVID\nCodec ID/Hint : XviD\nDuration : 1h 24mn\nBit rate : 1 390 Kbps\nWidth : 652 pixels\nHeight : 352 pixels\nDisplay aspect ratio : 1.852\nFrame rate : 25.000 fps\nResolution : 24 bits\nColorimetry : 4:2:0\nScan type : Progressive\nBits/(Pixel*Frame) : 0.242\nStream size : 841 MiB (91%)\nWriting library : XviD 1.2.1 (UTC 2008-12-04)\nAudio #1\nID : 1\nFormat : MPEG Audio\nFormat version : Version 1\nFormat profile : Layer 3\nCodec ID : 55\nCodec ID/Hint : MP3\nDuration : 1h 24mn\nBit rate mode : Constant\nBit rate : 128 Kbps\nChannel(s) : 2 channels\nSampling rate : 44.1 KHz\nResolution : 16 bits\nStream size : 77.4 MiB (8%)\nAlignment : Split accross interleaves\nInterleave, duration : 40 ms (1.00 video frame)\nInterleave, preload duration : 500 ms\n\nPlot:\nAfter experiencing what they think are a series of &quot;break-ins&quot;, a family sets up security cameras around their home, only to realize that the events unfolding before them are more sinister than they seem.\n\nscreens\n &lt;a href=&quot;\nhttp://img202.imageshack.us/img202/4530/paranormalactivity22010.jpg&quot; rel=&quot;nofollow&quot; target=&quot;_NEW&quot;&gt;\nhttp://img202.imageshack.us/img202/4530/paranormalactivity22010.jpg&lt;/a&gt; &lt;a href=&quot;\nhttp://img28.imageshack.us/img28/4530/paranormalactivity22010.jpg&quot; rel=&quot;nofollow&quot; target=&quot;_NEW&quot;&gt;\nhttp://img28.imageshack.us/img28/4530/paranormalactivity22010.jpg&lt;/a&gt; &lt;a href=&quot;\nhttp://img441.imageshack.us/img441/4530/paranormalactivity22010.jpg&quot; rel=&quot;nofollow&quot; target=&quot;_NEW&quot;&gt;\nhttp://img441.imageshack.us/img441/4530/paranormalactivity22010.jpg&lt;/a&gt; &lt;a href=&quot;\nhttp://img52.imageshack.us/img52/4530/paranormalactivity22010.jpg&quot; rel=&quot;nofollow&quot; target=&quot;_NEW&quot;&gt;\nhttp://img52.imageshack.us/img52/4530/paranormalactivity22010.jpg&lt;/a&gt; &lt;a href=&quot;\nhttp://img146.imageshack.us/img146/4530/paranormalactivity22010.jpg&quot; rel=&quot;nofollow&quot; target=&quot;_NEW&quot;&gt;\nhttp://img146.imageshack.us/img146/4530/paranormalactivity22010.jpg&lt;/a&gt; &lt;a href=&quot;\nhttp://img815.imageshack.us/img815/4530/paranormalactivity22010.jpg&quot; rel=&quot;nofollow&quot; target=&quot;_NEW&quot;&gt;\nhttp://img815.imageshack.us/img815/4530/paranormalactivity22010.jpg&lt;/a&gt; &lt;a href=&quot;\nhttp://img827.imageshack.us/img827/4530/paranormalactivity22010.jpg&quot; rel=&quot;nofollow&quot; target=&quot;_NEW&quot;&gt;\nhttp://img827.imageshack.us/img827/4530/paranormalactivity22010.jpg&lt;/a&gt;","torrent":{"xt":"urn:btih:2573a1cb781f4d64be36a4a7a8342c31c2e803fb","amp;dn":"Paranormal+Activity+2+2010+TS+Xvid+Feel-Free","amp;tr":["udp%3A%2F%2Ftracker.openbittorrent.com%3A80","udp%3A%2F%2Fopen.demonii.com%3A1337","udp%3A%2F%2Ftracker.coppersurfer.tk%3A6969","udp%3A%2F%2Fexodus.desync.com%3A6969"],"infoHash":"2573a1cb781f4d64be36a4a7a8342c31c2e803fb","infoHashBuffer":{"type":"Buffer","data":[37,115,161,203,120,31,77,100,190,54,164,167,168,52,44,49,194,232,3,251]},"announce":[],"urlList":[]}}